<svg xmlns="http://www.w3.org/2000/svg" viewBox="0 0 64 64" width="512" height="512"><g data-name="Concrete mixer"><path d="M49 58a3 3 0 113-3 3 3 0 01-3 3zm0-4a1 1 0 101 1 1 1 0 00-1-1zM15 58a3 3 0 113-3 3 3 0 01-3 3zm0-4a1 1 0 101 1 1 1 0 00-1-1zM46 44h-2a1 1 0 010-2h2a1 1 0 010 2zM21.81 37.449a.972.972 0 01-.259-.035 1 1 0 01-.707-1.225l.259-.965a1 1 0 011.931.517l-.259.966a1 1 0 01-.965.742z"/><path d="M61 52h-1V39a11.013 11.013 0 00-11-11H39a1 1 0 00-1 1v17h-6.2a7.027 7.027 0 003.05-4.113l1.49-5.562a7.039 7.039 0 00-2.643-7.472l-6.866-4.993a5.06 5.06 0 00-2.988-.957L8 23.048a3.011 3.011 0 00-2.87 2.223l-2.6 9.7a3 3 0 001.245 3.28l.225.142V46H3a1 1 0 00-1 1v6a1 1 0 001 1h1v1a3 3 0 003 3h1.685a6.985 6.985 0 0012.63 0h21.37a6.985 6.985 0 0012.63 0H59a3 3 0 003-3v-2a1 1 0 00-1-1zM44 30h5a9.011 9.011 0 018.941 8H56v-2a1 1 0 00-2 0v2h-9a1 1 0 01-1-1zM10 42.354L15.522 46H10zm-5.533-6.869l2.6-9.695a1 1 0 01.957-.742l15.84-.145h.006l-1.73 6.456a1 1 0 00.707 1.224.972.972 0 00.259.035 1 1 0 00.965-.742l1.694-6.321 6.753 4.914a5.031 5.031 0 011.889 5.337l-1.491 5.562a5.029 5.029 0 01-4.3 3.678l-8.3.879 1.435-5.355a1 1 0 00-1.932-.518l-1.451 5.418c-.013-.009-.028-.014-.042-.023L4.883 36.579a1 1 0 01-.416-1.094zM8 41.034V42H6v-2.287zM8 44v2H6v-2zm.08 12H7a1 1 0 01-1-1v-1h2.08a6.29 6.29 0 000 2zM15 60a5 5 0 115-5 5.006 5.006 0 01-5 5zm0-12a7 7 0 00-6.315 4H4v-4h34v4H21.315A7 7 0 0015 48zm27.08 8H21.92a6.29 6.29 0 000-2h20.16a6.29 6.29 0 000 2zM49 60a5 5 0 115-5 5.006 5.006 0 01-5 5zm0-12a7 7 0 00-6.315 4H40V30h2v7a3 3 0 003 3h13v2h-3a3 3 0 000 6h3v4h-2.685A7 7 0 0049 48zm9-4v2h-3a1 1 0 010-2zm2 11a1 1 0 01-1 1h-3.08a6.29 6.29 0 000-2H60z"/></g></svg>