<svg height="512" width="512" xmlns="http://www.w3.org/2000/svg"><path d="M226 312h78v-80h-16v56a8 8 0 01-8 8h-56v14a2 2 0 002 2zM56 400a8.009 8.009 0 008 8h8.805a39.841 39.841 0 017.217-16H64a8.009 8.009 0 00-8 8zM83.6 293.191L67.544 336H112v-48H91.088a8.037 8.037 0 00-7.488 5.191z"/><path d="M272 232h-22.111a7.958 7.958 0 00-7.156 4.422L224 273.889V280h48zM392.41 221.47A8 8 0 01400 216h3.835L224 87.545v12.936l159.887 146.562z"/><path d="M384 280h-64v32h112a8.009 8.009 0 008-8v-72h-34.234l-14.176 42.53A8 8 0 01384 280zM270.246 328l-4 16h107.508l-4-16zM112 392a24 24 0 1024 24 24.028 24.028 0 00-24-24zm0 32a8 8 0 118-8 8 8 0 01-8 8zM328 392a24 24 0 1024 24 24.028 24.028 0 00-24-24zm0 32a8 8 0 118-8 8 8 0 01-8 8zM464 376v-16H184v32h24v-16a8 8 0 018-8h32a8 8 0 018 8v16h40.022a39.956 39.956 0 0163.956 0h24.044A39.962 39.962 0 01416 376zM416 392a24 24 0 1024 24 24.028 24.028 0 00-24-24zm0 32a8 8 0 118-8 8 8 0 01-8 8zM472 392h-24.022a39.841 39.841 0 017.217 16H472a8 8 0 000-16zM160 288h-32v48h40v-40a8.009 8.009 0 00-8-8z"/><path d="M224 384h16v32h-16zM64 376h48a40.067 40.067 0 0139.2 32H168v-56H64zM64 200a24.042 24.042 0 00-16-22.629V125.2l160-27.977V81.511L32 110.99V184a8 8 0 008 8 8 8 0 11-6.935 11.994 8 8 0 10-13.849 8.012A24 24 0 0064 200z"/></svg>