<svg height="648" viewBox="0 -58 486.485 486" width="648" xmlns="http://www.w3.org/2000/svg"><path d="M478.48 155.242h-51.242v-16.62c0-4.423-3.246-8.38-7.668-8.38h-42.332v-56.62c0-4.423-3.246-8.38-7.668-8.38h-44.332V8.622c0-4.423-3.246-8.38-7.668-8.38h-106a8.618 8.618 0 00-8.332 8.38v56.62H157.57a8.618 8.618 0 00-8.332 8.38v56.62H101.57a8.618 8.618 0 00-8.332 8.38v16.62h-4v-60.62a8.33 8.33 0 00-8-8.38h-2v-20a8 8 0 00-8-8h-29a8 8 0 00-8 8v20h-1a8.333 8.333 0 00-8 8.38v60.62H7.996A8.087 8.087 0 00.461 166.02L37.77 270.965a59.993 59.993 0 01-19.774 2.894c-4.418 0-8.004 3.582-8.004 8a8.005 8.005 0 008.004 8.004c20.395 0 31.102-5.828 40.54-10.972 8.886-4.844 16.562-9.024 32.878-9.024s23.992 4.18 32.883 9.024c9.441 5.144 20.144 10.976 40.535 10.976 20.395 0 31.094-5.832 40.535-10.976 8.887-4.844 16.567-9.024 32.88-9.024 16.315 0 23.991 4.18 32.878 9.024 9.441 5.144 20.145 10.976 40.535 10.976s31.09-5.832 40.531-10.976c8.887-4.844 16.563-9.024 32.88-9.024 16.312 0 23.988 4.18 32.874 9.024 9.442 5.144 20.145 10.976 40.535 10.976a8 8 0 000-16 60.654 60.654 0 01-19.164-2.68l46.473-104.566a8.086 8.086 0 00-.59-7.656 8.095 8.095 0 00-6.719-3.723zm-67.242 0h-23c-2.23 0-4.36.93-5.875 2.567l-34.62 37.433h-26.505v-49h90zm-106-9v49h-90v-49zm56-16h-90v-49h90zm-142-114h90v49h-90zm-54 65h90v49h-90zm-56 65h90v49h-29.3l-31.598-37.18a8.015 8.015 0 00-6.102-2.82h-23zm-59-72h13v12h-13zm-9 28h32v53h-32zm383.578 162.106c-9.253-5.035-19.921-10.516-39.746-10.516-20.39 0-31.093 5.848-40.535 10.992-8.887 4.844-16.562 9.035-32.875 9.035s-23.992-4.18-32.879-9.023c-9.441-5.145-20.14-10.973-40.535-10.973-20.39 0-31.09 5.832-40.535 10.977-8.887 4.844-16.563 9.027-32.879 9.027s-23.992-4.183-32.879-9.027c-9.441-5.145-20.144-10.973-40.539-10.973-19.383 0-30.008 5.2-39.121 10.137l-32.961-92.762h109.207l31.602 37.18a7.988 7.988 0 006.097 2.82h185c2.23 0 4.36-.93 5.875-2.566l34.625-37.434h74.434zm0 0M17.996 329.867c20.395 0 31.102-5.832 40.54-10.976 8.886-4.844 16.562-9.024 32.878-9.024s23.992 4.18 32.883 9.024c9.441 5.144 20.144 10.976 40.535 10.976 20.395 0 31.094-5.832 40.535-10.976 8.887-4.844 16.567-9.024 32.88-9.024 16.315 0 23.991 4.18 32.878 9.024 9.441 5.144 20.145 10.976 40.535 10.976s31.09-5.832 40.531-10.976c8.887-4.844 16.563-9.024 32.88-9.024 16.312 0 23.988 4.18 32.874 9.024 9.442 5.144 20.145 10.976 40.535 10.976a8 8 0 000-16c-16.316 0-23.992-4.183-32.878-9.027-9.442-5.145-20.141-10.973-40.532-10.973-20.39 0-31.093 5.828-40.53 10.977-8.888 4.84-16.563 9.023-32.88 9.023-16.312 0-23.988-4.183-32.879-9.023-9.437-5.145-20.14-10.977-40.531-10.977s-31.094 5.832-40.535 10.977c-8.89 4.84-16.563 9.023-32.88 9.023-16.315 0-23.991-4.183-32.882-9.023-9.441-5.145-20.144-10.977-40.535-10.977-20.395 0-31.098 5.828-40.54 10.977-8.89 4.84-16.566 9.023-32.882 9.023a8 8 0 000 16zm0 0M17.996 369.867c20.395 0 31.102-5.832 40.54-10.976 8.886-4.844 16.562-9.024 32.878-9.024s23.992 4.18 32.883 9.024c9.441 5.144 20.144 10.976 40.535 10.976 20.395 0 31.094-5.832 40.535-10.976 8.887-4.844 16.567-9.024 32.88-9.024 16.315 0 23.991 4.18 32.878 9.024 9.441 5.144 20.145 10.976 40.535 10.976s31.09-5.832 40.531-10.976c8.887-4.844 16.563-9.024 32.88-9.024 16.312 0 23.988 4.18 32.874 9.024 9.442 5.144 20.145 10.976 40.535 10.976a8 8 0 000-16c-16.316 0-23.992-4.183-32.878-9.027-9.442-5.145-20.141-10.973-40.532-10.973-20.39 0-31.093 5.828-40.53 10.977-8.888 4.84-16.563 9.023-32.88 9.023-16.312 0-23.988-4.183-32.879-9.023-9.437-5.145-20.14-10.977-40.531-10.977s-31.094 5.832-40.535 10.977c-8.89 4.84-16.563 9.023-32.88 9.023-16.315 0-23.991-4.183-32.882-9.023-9.441-5.145-20.144-10.977-40.535-10.977-20.395 0-31.098 5.828-40.54 10.977-8.89 4.84-16.566 9.023-32.882 9.023a8 8 0 000 16zm0 0"/></svg>