<svg height="512" viewBox="0 0 511.99 511.99" width="512" xmlns="http://www.w3.org/2000/svg"><path d="M499.354 275.396l-22.757-7.233v-67.734c0-10.764-8.757-19.521-19.521-19.521h-49.95c-4.143 0-7.5 3.358-7.5 7.5s3.357 7.5 7.5 7.5h49.95a4.527 4.527 0 014.521 4.521v10.588h-55.495c-15.179 0-27.528 12.349-27.528 27.528v15.075c0 15.179 12.35 27.528 27.528 27.528h61.832l26.877 8.544a3.111 3.111 0 012.179 2.978v11.727h-7.192c-4.143 0-7.5 3.357-7.5 7.5s3.357 7.5 7.5 7.5h7.192v9.628a3.13 3.13 0 01-3.127 3.126h-26.047c-9.831-21.6-31.425-35.915-55.683-35.915-24.219 0-45.836 14.28-55.683 35.915h-21.709v-98.73c0-20.684 16.828-37.512 37.512-37.512h4.887c4.143 0 7.5-3.358 7.5-7.5s-3.357-7.5-7.5-7.5h-4.887c-28.955 0-52.512 23.557-52.512 52.512v13.042H303.39c-8.447 0-15.319 6.873-15.319 15.32v42.615h-50.177v-12.161h11.965a7.498 7.498 0 006.242-3.342l81.079-121.717h8.37a23.393 23.393 0 0016.125-6.413l22.436-21.197 33.933-10.302a7.5 7.5 0 005.321-7.177v-21.146a7.5 7.5 0 00-7.5-7.5h-41.979a23.39 23.39 0 00-16.126 6.413l-21.548 20.361H235.487c-4.143 0-7.5 3.358-7.5 7.5s3.357 7.5 7.5 7.5h103.709a7.501 7.501 0 005.151-2.048l23.717-22.41a8.445 8.445 0 015.823-2.315h34.479v8.085l-30.301 9.199a7.507 7.507 0 00-2.972 1.725l-23.719 22.409a8.442 8.442 0 01-5.823 2.316H70.108a7.498 7.498 0 00-5.571 2.479l-34.767 38.58c-3.232 3.586-8.601 3.666-11.977.624-3.475-3.131-3.754-8.504-.625-11.978l39.528-43.865a8.496 8.496 0 016.301-2.803h142.502c4.143 0 7.5-3.358 7.5-7.5s-3.357-7.5-7.5-7.5H62.997a23.512 23.512 0 00-17.443 7.762L6.025 171.842c-8.665 9.618-7.891 24.494 1.726 33.161 9.665 8.709 24.517 7.869 33.162-1.725l.802-.889 9.524 11.566v90.441h-4.031c-15.715 0-30.018 8.643-37.328 22.555l-4.839 9.211a7.501 7.501 0 006.64 10.988h44.433a61.316 61.316 0 00-.875 10.242c0 33.693 27.454 61.157 61.158 61.157 33.694 0 61.157-27.454 61.157-61.157 0-3.491-.31-6.909-.875-10.242h22.852v11.145c0 9.011 7.33 16.341 16.34 16.341h14.524c4.143 0 7.5-3.357 7.5-7.5s-3.357-7.5-7.5-7.5H215.87c-.739 0-1.34-.602-1.34-1.341V347.15h85.211v11.145c0 .739-.601 1.341-1.34 1.341H260.38c-4.143 0-7.5 3.357-7.5 7.5s3.357 7.5 7.5 7.5h38.021c9.01 0 16.34-7.33 16.34-16.341V347.15h37.109a61.21 61.21 0 00-.875 10.242c0 33.694 27.454 61.157 61.157 61.157 33.694 0 61.157-27.454 61.157-61.157 0-3.491-.31-6.909-.875-10.242h21.447c9.995 0 18.127-8.131 18.127-18.126V292.67a18.055 18.055 0 00-12.634-17.274zm-105.78-21.777v-15.075c0-6.908 5.62-12.528 12.528-12.528h55.495v40.132h-55.495c-6.908 0-12.528-5.621-12.528-12.529zm-90.502 8.161a.32.32 0 01.319-.32h16.351v42.936h-16.67zm-80.177 42.616h-76.036a60.605 60.605 0 00-4.684-2.443v-9.718h80.72zm-61.634 60.496h.673a45.907 45.907 0 01-8.051 19.38l-.459-.459a7.5 7.5 0 00-10.607 10.607l.459.459a45.894 45.894 0 01-19.38 8.051v-.673c0-4.143-3.357-7.5-7.5-7.5s-7.5 3.357-7.5 7.5v.673a45.894 45.894 0 01-19.38-8.051l.459-.459a7.5 7.5 0 00-10.607-10.607l-.459.459a45.913 45.913 0 01-8.052-19.38h.674c4.143 0 7.5-3.357 7.5-7.5s-3.357-7.5-7.5-7.5h-.674a45.895 45.895 0 018.052-19.38l.459.46a7.501 7.501 0 0010.607-10.607l-.459-.459a45.907 45.907 0 0119.38-8.051v.673c0 4.143 3.357 7.5 7.5 7.5s7.5-3.357 7.5-7.5v-.673a45.894 45.894 0 0119.38 8.051l-.459.459a7.5 7.5 0 1010.608 10.607l.459-.459a45.894 45.894 0 018.051 19.38h-.673c-4.143 0-7.5 3.357-7.5 7.5s3.356 7.499 7.499 7.499zm16.826-197.717L116.26 269.321l-28.184-34.227 40.771-67.918h49.24zm66.98 0l-66.068 110.059h-49.995l66.618-110.059zm-131.62 122.327a7.501 7.501 0 005.79 2.732h7.938v4.971a61.182 61.182 0 00-10.779-.971 60.784 60.784 0 00-24.608 5.187v-38.223zm132.397-12.267h-49.349l66.067-110.059h56.595zM73.446 167.175h37.906l-33.394 55.629c-9.721-11.806-17.363-21.085-26.089-31.684zm-7.208 64.996l10.55 12.812v59.413h-10.55zM24.177 332.15a27.088 27.088 0 0123.029-12.754h21.32a61.248 61.248 0 00-7.814 12.754zm147.901 0a61.243 61.243 0 00-7.813-12.754h155.477v12.754H172.078zm284.92 32.742h.673a45.907 45.907 0 01-8.051 19.38l-.459-.459a7.5 7.5 0 00-10.607 10.607l.459.459a45.894 45.894 0 01-19.38 8.051v-.673c0-4.143-3.357-7.5-7.5-7.5s-7.5 3.357-7.5 7.5v.673a45.907 45.907 0 01-19.38-8.051l.459-.459a7.5 7.5 0 00-10.607-10.607l-.459.459a45.907 45.907 0 01-8.051-19.38h.673c4.143 0 7.5-3.357 7.5-7.5s-3.357-7.5-7.5-7.5h-.673a45.894 45.894 0 018.051-19.38l.459.459c1.465 1.464 3.385 2.196 5.304 2.196s3.839-.732 5.304-2.196a7.5 7.5 0 000-10.607l-.459-.459a45.894 45.894 0 0119.38-8.051v.673c0 4.143 3.357 7.5 7.5 7.5s7.5-3.357 7.5-7.5v-.673a45.894 45.894 0 0119.38 8.051l-.459.459a7.5 7.5 0 1010.608 10.607l.459-.459a45.894 45.894 0 018.051 19.38H457c-4.143 0-7.5 3.357-7.5 7.5s3.356 7.5 7.498 7.5z"/><path d="M412.133 332.757c-13.584 0-24.635 11.051-24.635 24.635s11.051 24.635 24.635 24.635 24.635-11.051 24.635-24.635-11.051-24.635-24.635-24.635zm0 34.27c-5.312 0-9.635-4.322-9.635-9.635s4.322-9.635 9.635-9.635 9.635 4.322 9.635 9.635-4.322 9.635-9.635 9.635zM116.396 332.757c-13.584 0-24.636 11.051-24.636 24.635s11.052 24.635 24.636 24.635 24.635-11.051 24.635-24.635-11.051-24.635-24.635-24.635zm0 34.27c-5.313 0-9.636-4.322-9.636-9.635s4.322-9.635 9.636-9.635c5.312 0 9.635 4.322 9.635 9.635s-4.323 9.635-9.635 9.635z"/></svg>